 <svg version="1.0" xmlns="http://www.w3.org/2000/svg" width="700.000000pt" height="243.000000pt" viewBox="0 0 700.000000 243.000000" preserveAspectRatio="xMidYMid meet">

<g transform="translate(0.000000,243.000000) scale(0.100000,-0.100000)" fill="#ffffff" stroke="none">
<path d="M215 2198 c-3 -7 -4 -467 -3 -1023 l3 -1010 273 -5 c149 -3 272 -2
272 2 0 3 -21 16 -47 29 -27 13 -75 50 -109 83 -102 103 -154 243 -154 419 1
243 112 438 306 533 l78 39 135 -1 c120 0 148 -4 236 -30 114 -33 113 -32 100
-151 -6 -61 -25 -89 -25 -38 0 70 -43 117 -144 157 -67 26 -95 31 -166 32 -75
1 -92 -3 -151 -30 -89 -42 -139 -90 -183 -173 -53 -102 -69 -182 -63 -326 10
-255 97 -419 267 -507 63 -32 69 -33 185 -33 111 0 124 2 177 28 66 32 103 71
119 128 13 43 4 66 -15 35 -37 -63 -76 -104 -121 -126 -44 -22 -62 -25 -160
-25 -101 0 -115 3 -169 29 -80 39 -140 102 -182 189 -44 94 -64 188 -64 312 0
156 35 268 111 350 85 92 188 127 309 106 39 -7 94 -25 123 -39 46 -24 56 -35
85 -94 18 -39 38 -68 47 -68 31 0 52 36 59 101 12 121 -10 147 -155 186 -259
69 -443 31 -600 -126 -129 -129 -174 -252 -173 -471 0 -121 3 -143 28 -215 29
-86 70 -157 125 -217 24 -28 30 -39 19 -43 -8 -3 -86 -4 -173 -3 l-160 3 0
980 0 980 1705 0 1705 0 0 -980 0 -980 -74 -3 c-53 -2 -80 1 -96 12 -32 21
-63 87 -280 601 -103 242 -193 450 -201 463 -17 27 -55 29 -77 4 -9 -10 -102
-216 -206 -457 -246 -573 -233 -545 -271 -588 -37 -43 -82 -50 -100 -17 -7 13
-9 173 -8 487 3 387 6 474 18 501 26 58 11 67 -123 70 -108 2 -117 1 -127 -18
-9 -16 -6 -29 15 -64 25 -43 25 -47 23 -207 l-3 -164 -225 0 -225 0 -3 165
c-3 156 -2 167 20 208 37 69 25 77 -117 77 -102 0 -119 -2 -129 -18 -9 -14 -6
-26 12 -57 22 -39 22 -40 22 -497 0 -530 5 -503 -85 -503 l-55 0 3 76 c3 108
-15 104 -37 -7 -15 -72 -23 -93 -37 -96 -11 -3 -19 -8 -19 -12 0 -6 196 -3
217 4 7 2 22 19 33 37 19 32 20 50 20 505 l0 471 -25 30 c-14 17 -25 31 -25
33 0 2 47 4 105 4 58 0 105 -2 105 -4 0 -3 -10 -15 -22 -29 -22 -23 -23 -30
-23 -225 l0 -202 265 0 265 0 0 203 0 204 -28 23 c-15 13 -27 25 -27 27 0 2
47 3 105 3 58 0 105 -1 105 -3 0 -2 -9 -15 -20 -30 -20 -27 -20 -39 -18 -519
3 -467 4 -492 22 -512 14 -16 31 -21 66 -21 43 0 51 4 83 39 34 38 77 120 119
226 10 28 34 84 53 125 32 70 274 631 298 693 6 15 15 26 20 24 4 -1 39 -76
78 -167 38 -91 87 -205 109 -255 21 -49 78 -182 126 -295 131 -313 134 -318
176 -355 l39 -36 102 3 102 3 0 1020 0 1020 -1743 3 c-1389 2 -1744 0 -1747
-10z"></path>
<path d="M4012 1243 c-35 -7 -90 -68 -98 -108 -14 -75 16 -138 80 -169 59 -28
166 -16 166 19 0 19 -9 19 -34 0 -46 -35 -138 -6 -161 49 -25 60 -20 121 14
158 26 29 35 33 81 33 43 0 55 -4 71 -24 22 -27 34 -23 24 8 -9 31 -77 47
-143 34z"></path>
<path d="M4300 1233 c-103 -53 -108 -202 -8 -263 67 -40 150 -14 189 60 24 45
24 84 -1 136 -36 73 -113 102 -180 67z m101 -19 c37 -19 59 -67 59 -130 0 -39
-5 -51 -34 -80 -42 -42 -82 -45 -125 -9 -87 74 -52 231 52 234 10 1 32 -6 48
-15z"></path>
<path d="M5430 1239 c-120 -50 -130 -219 -16 -273 49 -23 131 -21 156 4 19 19
26 40 14 40 -4 0 -13 -8 -20 -17 -9 -14 -27 -18 -68 -18 -49 0 -59 4 -87 32
-25 24 -33 42 -36 80 -6 62 8 98 49 124 39 24 98 21 129 -7 13 -12 23 -14 29
-8 30 30 -96 66 -150 43z"></path>
<path d="M6075 1236 c-44 -19 -82 -69 -90 -116 -9 -55 26 -126 75 -152 65 -34
180 -16 180 28 0 19 -10 18 -25 -2 -15 -21 -93 -29 -125 -12 -91 48 -92 200
-1 237 35 15 93 8 111 -14 16 -19 30 -19 30 -1 0 22 -22 34 -75 40 -33 4 -61
1 -80 -8z"></path>
<path d="M4545 1100 c0 -118 2 -140 15 -140 13 0 14 17 12 105 -3 67 0 105 6
105 6 0 50 -46 97 -102 48 -57 91 -104 96 -106 5 -2 9 55 9 127 0 72 1 134 2
139 1 4 -5 8 -13 10 -11 2 -13 -14 -11 -94 2 -53 0 -100 -5 -105 -4 -4 -46 39
-92 96 -46 58 -91 105 -100 105 -14 0 -16 -18 -16 -140z"></path>
<path d="M4855 1100 c0 -118 2 -140 15 -140 13 0 14 17 12 105 -3 67 0 105 6
105 6 0 50 -47 98 -105 48 -58 91 -105 95 -105 5 0 9 59 9 130 0 72 1 133 2
138 1 4 -5 8 -13 10 -12 2 -14 -15 -11 -104 3 -65 1 -105 -5 -103 -10 4 -99
107 -147 172 -16 20 -36 37 -45 37 -14 0 -16 -17 -16 -140z"></path>
<path d="M5170 1236 c-1 -4 -1 -66 -1 -138 l0 -133 60 0 c67 0 81 18 16 19
l-40 1 0 55 0 55 33 -3 c24 -2 32 1 32 12 0 12 -9 15 -32 14 l-33 -3 0 50 c0
47 2 50 25 51 46 0 36 19 -12 22 -27 2 -48 1 -48 -2z"></path>
<path d="M5607 1234 c-15 -15 -5 -20 41 -20 l47 1 0 -128 c0 -119 1 -128 18
-125 17 3 19 15 20 128 l2 125 48 -1 c29 0 46 4 44 10 -4 12 -209 21 -220 10z"></path>
<path d="M5890 1238 c-1 -2 -2 -65 -3 -141 -2 -128 -1 -138 16 -135 17 3 18
15 18 138 0 115 -2 135 -15 138 -9 2 -16 2 -16 0z"></path>
<path d="M6295 1231 c-3 -5 -1 -12 5 -16 6 -3 10 -47 10 -100 0 -86 2 -96 26
-124 22 -27 32 -31 74 -31 27 0 52 5 55 10 4 6 -11 10 -38 10 -33 0 -49 6 -66
24 -21 23 -23 31 -19 130 3 103 2 106 -19 106 -12 0 -24 -4 -28 -9z"></path>
<path d="M6490 1238 c-1 -6 -1 -254 -1 -265 1 -15 37 -18 46 -4 3 5 1 12 -5
16 -6 4 -10 52 -10 115 0 63 4 111 10 115 15 9 2 25 -21 25 -10 0 -19 -1 -19
-2z"></path>
<path d="M6587 1234 c-15 -16 -5 -20 46 -19 l52 0 3 -109 c2 -71 -1 -113 -9
-122 -9 -11 -8 -15 5 -20 34 -13 38 0 39 126 l2 125 48 -2 c33 -1 47 2 44 10
-4 13 -218 23 -230 11z"></path>
<path d="M2896 982 c-22 -53 -72 -173 -111 -267 -40 -93 -75 -180 -79 -192
l-7 -23 241 0 c190 0 241 3 237 13 -2 6 -52 132 -111 278 -58 147 -106 271
-106 278 0 6 -6 11 -12 11 -7 0 -31 -44 -52 -98z m141 -221 c46 -112 80 -207
77 -212 -7 -12 -341 -12 -348 0 -8 13 166 422 178 418 6 -2 48 -95 93 -206z"></path>
<path d="M4315 843 c-61 -16 -105 -76 -105 -143 0 -85 61 -150 140 -150 103 0
167 103 125 203 -14 35 -67 87 -88 87 -7 0 -21 2 -32 4 -11 2 -29 2 -40 -1z
m86 -33 c30 -17 49 -64 49 -125 0 -49 -4 -60 -29 -86 -55 -54 -137 -32 -166
45 -21 55 -14 104 21 146 21 24 34 30 66 30 21 0 48 -5 59 -10z"></path>
<path d="M4565 825 c-16 -15 -25 -36 -25 -57 -1 -28 9 -41 57 -85 54 -48 57
-53 48 -80 -8 -22 -17 -29 -43 -31 -18 -2 -40 2 -48 9 -17 14 -29 6 -21 -16 5
-10 20 -15 51 -15 36 0 48 5 65 26 37 47 28 81 -34 139 -59 54 -70 86 -35 105
16 8 28 8 50 -4 26 -13 30 -13 30 0 0 13 -37 34 -61 34 -5 0 -21 -11 -34 -25z"></path>
<path d="M3930 838 c0 -2 -2 -65 -3 -140 -2 -134 -2 -137 20 -141 28 -5 36 2
22 19 -5 7 -9 36 -7 66 l3 53 70 0 70 0 1 -69 c1 -64 3 -70 23 -71 24 -2 37
10 21 20 -14 9 -13 228 2 243 9 9 7 13 -5 18 -31 11 -40 -1 -41 -57 l-1 -54
-70 0 -70 0 -3 38 c-2 21 1 44 7 51 6 7 8 16 4 19 -6 7 -43 10 -43 5z"></path>
<path d="M4739 720 c2 -66 1 -127 -3 -135 -3 -8 -7 -18 -8 -22 -4 -9 52 -10
58 -2 2 4 0 10 -6 14 -6 4 -10 54 -10 121 0 97 3 116 16 121 44 17 74 -69 38
-108 -15 -17 -15 -19 -1 -19 21 0 57 47 57 75 0 36 -53 75 -103 75 l-42 0 4
-120z"></path>
<path d="M4926 831 c-4 -5 -2 -12 4 -16 6 -4 10 -54 10 -120 0 -66 -4 -116
-10 -120 -17 -11 -2 -23 22 -18 23 4 23 6 21 141 -2 128 -3 137 -21 140 -11 2
-23 -1 -26 -7z"></path>
<path d="M5029 824 c-13 -16 -11 -16 54 -14 l47 1 0 -113 c0 -75 -4 -118 -12
-126 -7 -7 -10 -12 -7 -13 46 -8 83 1 59 16 -6 4 -10 54 -10 121 l0 115 48 -1
c64 -2 66 -2 53 14 -8 10 -39 14 -116 14 -77 0 -108 -4 -116 -14z"></path>
<path d="M5540 835 c0 -3 -1 -66 -1 -141 l0 -136 61 -5 c39 -3 67 0 76 8 23
19 7 26 -42 19 -33 -5 -47 -4 -51 6 -2 7 -3 67 -1 133 3 120 3 121 -19 121
-13 0 -23 -2 -23 -5z"></path>
<path d="M5330 783 c-12 -27 -35 -80 -51 -120 -17 -39 -37 -77 -45 -83 -18
-16 -9 -30 14 -23 10 2 22 19 28 36 9 32 10 32 74 32 65 0 65 0 75 -32 7 -25
15 -33 32 -33 27 0 28 3 9 33 -7 12 -32 70 -56 130 -24 59 -47 107 -51 107 -5
0 -18 -21 -29 -47z m48 -66 c12 -29 22 -56 22 -60 0 -9 -88 -9 -93 1 -6 9 33
112 42 112 4 0 17 -24 29 -53z"></path>
<path d="M1667 713 c-4 -3 -7 -115 -7 -247 0 -223 2 -243 20 -274 l20 -32 228
0 c220 0 230 1 248 21 18 20 19 39 19 278 l0 256 -261 3 c-143 1 -263 -1 -267
-5z m491 -256 c1 -139 -1 -225 -8 -237 -10 -19 -22 -20 -220 -20 -197 0 -210
1 -220 19 -11 22 -14 443 -3 455 4 3 106 5 227 4 l221 -3 3 -218z"></path>
<path d="M2659 413 c-5 -16 -23 -63 -39 -105 -35 -90 -37 -109 -12 -131 16
-15 54 -17 333 -17 232 0 318 3 327 12 7 7 12 24 12 39 0 30 -56 196 -72 217
-8 9 -75 12 -274 12 l-264 0 -11 -27z m554 -100 c16 -45 27 -89 24 -98 -6 -13
-44 -15 -295 -15 -235 0 -292 3 -301 14 -9 11 -6 29 13 79 45 120 12 108 288
105 l242 -3 29 -82z"></path>
<path d="M4260 420 c-12 -12 -20 -33 -20 -54 0 -27 9 -42 55 -83 60 -55 68
-83 33 -107 -28 -20 -52 -20 -68 -1 -16 19 -30 19 -30 0 0 -16 38 -35 71 -35
33 0 69 44 69 86 0 31 -8 43 -55 87 -30 27 -55 57 -55 66 0 38 55 56 80 26 16
-19 30 -19 30 0 0 36 -78 47 -110 15z"></path>
<path d="M4448 423 c-41 -47 -29 -95 38 -142 23 -17 46 -40 49 -51 15 -47 -48
-89 -84 -56 -22 20 -31 20 -31 1 0 -16 38 -35 71 -35 32 0 69 44 69 82 0 26
-10 42 -55 84 -55 52 -66 79 -43 102 15 15 51 15 66 0 17 -17 28 -2 12 17 -17
20 -73 19 -92 -2z"></path>
<path d="M4700 433 c-23 -9 -60 -45 -76 -75 -36 -70 -1 -167 73 -200 59 -26
102 -18 148 27 72 72 54 194 -35 240 -29 15 -81 19 -110 8z m98 -29 c57 -39
71 -149 27 -202 -82 -97 -211 6 -175 139 19 68 94 101 148 63z"></path>
<path d="M4999 417 c-44 -29 -74 -100 -65 -151 10 -50 59 -103 107 -116 54
-15 127 -3 140 22 15 28 3 35 -22 12 -15 -13 -36 -19 -70 -19 -41 0 -53 5 -81
32 -27 27 -32 41 -36 92 -4 59 -3 62 32 97 35 35 39 36 88 32 31 -3 56 -12 63
-22 17 -23 27 -20 23 6 -6 42 -124 52 -179 15z"></path>
<path d="M6043 421 c-100 -63 -93 -210 13 -261 150 -73 267 133 141 249 -37
33 -111 39 -154 12z m126 -17 c50 -36 66 -134 31 -192 -38 -63 -107 -65 -160
-6 -25 30 -30 43 -30 89 0 46 4 59 31 90 25 28 38 35 68 35 20 0 47 -7 60 -16z"></path>
<path d="M3979 298 c-35 -72 -65 -135 -67 -140 -2 -4 5 -8 15 -8 14 0 22 11
29 37 l9 37 73 1 c78 0 88 -5 94 -45 2 -19 10 -26 32 -28 15 -2 26 0 24 5 -94
197 -132 273 -138 273 -3 0 -35 -59 -71 -132z m100 12 c16 -33 27 -61 23 -63
-13 -6 -117 -1 -115 7 6 27 48 116 55 116 4 0 21 -27 37 -60z"></path>
<path d="M5260 428 c0 -2 -1 -65 -3 -141 -2 -131 -1 -137 18 -137 19 0 20 6
18 137 -2 115 -5 139 -18 141 -8 2 -15 2 -15 0z"></path>
<path d="M5472 418 c-7 -7 -12 -17 -12 -23 0 -7 -6 -25 -14 -41 -8 -16 -32
-65 -52 -109 -21 -44 -40 -84 -42 -88 -2 -5 6 -7 19 -5 15 2 23 10 24 26 3 35
20 45 77 47 63 2 78 -8 78 -46 0 -26 4 -29 30 -29 35 0 35 0 11 42 -11 18 -36
76 -57 128 -42 109 -46 114 -62 98z m29 -103 c11 -28 19 -55 19 -60 0 -6 -19
-10 -45 -9 -25 1 -45 6 -45 10 1 26 35 114 43 111 5 -1 18 -25 28 -52z"></path>
<path d="M5587 424 c-15 -16 -5 -20 46 -19 l52 0 3 -109 c2 -63 -2 -113 -8
-120 -12 -16 -3 -26 24 -26 20 0 21 5 21 127 l0 128 48 -1 c29 0 46 4 44 10
-4 12 -219 21 -230 10z"></path>
<path d="M5875 290 c0 -133 1 -140 20 -140 19 0 20 6 18 137 -2 124 -4 138
-20 141 -17 2 -18 -8 -18 -138z"></path>
<path d="M6305 290 c0 -118 2 -140 15 -140 12 0 14 14 12 82 -7 155 -8 154 79
52 42 -49 84 -101 93 -116 10 -15 21 -26 25 -24 3 2 7 68 9 145 3 123 1 141
-12 141 -14 0 -16 -16 -16 -100 0 -55 -3 -100 -7 -99 -12 0 -153 175 -153 188
0 6 -10 11 -22 11 -23 0 -23 -1 -23 -140z"></path>
</g>
</svg>